<svg xmlns="http://www.w3.org/2000/svg" viewBox="0 0 358.61 63.55"><defs><style>.a,.b{fill:#fff;}.a{stroke:#fff;stroke-miterlimit:5;stroke-width:0.5px;}</style></defs><title>yanagishima</title><path class="a" d="M36.69,21.18,24.61.25H48.78ZM12.52.25H.43L24.61,42.12l6-10.47Zm48.35,0L42.74,31.65,30.65,52.59l6,10.47L73,.25Z"/><path class="b" d="M88,19.45h4.43l5,14.37q.33.94.67,2t.63,2.06q.29,1,.5,2a17.76,17.76,0,0,1,.3,1.78h.14q.12-.59.37-1.59t.57-2.14q.32-1.14.66-2.24t.6-1.87l4.66-14.32H111L100.86,48.54a27.72,27.72,0,0,1-1.42,3.41,10.56,10.56,0,0,1-1.77,2.57,7,7,0,0,1-2.37,1.63,8.28,8.28,0,0,1-3.23.57A15,15,0,0,1,90,56.59q-.89-.13-1.52-.27v-3.4a10.38,10.38,0,0,0,1.24.2,14.45,14.45,0,0,0,1.57.08,6.26,6.26,0,0,0,1.95-.27,4.23,4.23,0,0,0,1.43-.79,4.76,4.76,0,0,0,1-1.27,10.9,10.9,0,0,0,.79-1.71l1.34-3.75Z"/><path class="b" d="M129.86,45.19,129,41.62h-.19a15,15,0,0,1-1.55,1.82,7.4,7.4,0,0,1-1.69,1.25,7.5,7.5,0,0,1-2,.73,12.86,12.86,0,0,1-2.6.23,9.29,9.29,0,0,1-3-.46,6.26,6.26,0,0,1-2.36-1.41A6.52,6.52,0,0,1,114,41.4a9.37,9.37,0,0,1-.56-3.41,7,7,0,0,1,2.71-5.91q2.71-2.06,8.24-2.25l4.31-.16V28.05a8.67,8.67,0,0,0-.34-2.62,4.16,4.16,0,0,0-1-1.7,3.69,3.69,0,0,0-1.59-.93,7.64,7.64,0,0,0-2.17-.28,11.31,11.31,0,0,0-3.62.56,23,23,0,0,0-3.22,1.36l-1.5-3.21a21.27,21.27,0,0,1,3.87-1.59,15.14,15.14,0,0,1,4.48-.66,15.71,15.71,0,0,1,4.14.48A6.88,6.88,0,0,1,130.67,21a6.38,6.38,0,0,1,1.7,2.66,12,12,0,0,1,.56,3.91V45.19Zm-7.83-3a7.66,7.66,0,0,0,2.65-.45,5.65,5.65,0,0,0,2.11-1.35,6.25,6.25,0,0,0,1.39-2.27,9.34,9.34,0,0,0,.5-3.22V32.6l-3.35.16a17.22,17.22,0,0,0-3.54.47,6.27,6.27,0,0,0-2.29,1,3.8,3.8,0,0,0-1.23,1.62A5.8,5.8,0,0,0,117.9,38,4,4,0,0,0,119,41.2,4.34,4.34,0,0,0,122,42.21Z"/><path class="b" d="M156.9,45.19V28.62A7.17,7.17,0,0,0,155.67,24a4.66,4.66,0,0,0-3.86-1.52,7.43,7.43,0,0,0-3.19.61,5,5,0,0,0-2.07,1.8,8.14,8.14,0,0,0-1.12,2.93,20.88,20.88,0,0,0-.34,4V45.19h-4.27V19.45h3.47l.61,3.47h.23a7.34,7.34,0,0,1,1.39-1.75,8.07,8.07,0,0,1,1.77-1.23,8.34,8.34,0,0,1,2-.73,10.34,10.34,0,0,1,2.2-.23q4.29,0,6.46,2.24t2.17,7.16v16.8Z"/><path class="b" d="M183.6,45.19l-.87-3.56h-.19A15,15,0,0,1,181,43.44a7.4,7.4,0,0,1-1.69,1.25,7.5,7.5,0,0,1-2,.73,12.86,12.86,0,0,1-2.6.23,9.29,9.29,0,0,1-3-.46,6.26,6.26,0,0,1-2.36-1.41,6.52,6.52,0,0,1-1.56-2.39,9.37,9.37,0,0,1-.56-3.41,7,7,0,0,1,2.71-5.91q2.71-2.06,8.24-2.25l4.31-.16V28.05a8.67,8.67,0,0,0-.34-2.62,4.16,4.16,0,0,0-1-1.7,3.69,3.69,0,0,0-1.59-.93,7.64,7.64,0,0,0-2.17-.28,11.31,11.31,0,0,0-3.62.56,23,23,0,0,0-3.22,1.36L169,21.23a21.27,21.27,0,0,1,3.87-1.59,15.14,15.14,0,0,1,4.48-.66,15.71,15.71,0,0,1,4.14.48A6.88,6.88,0,0,1,184.41,21a6.38,6.38,0,0,1,1.7,2.66,12,12,0,0,1,.56,3.91V45.19Zm-7.83-3a7.66,7.66,0,0,0,2.65-.45,5.65,5.65,0,0,0,2.11-1.35,6.25,6.25,0,0,0,1.39-2.27,9.34,9.34,0,0,0,.5-3.22V32.6l-3.35.16a17.22,17.22,0,0,0-3.54.47,6.27,6.27,0,0,0-2.29,1A3.8,3.8,0,0,0,172,35.89a5.8,5.8,0,0,0-.37,2.14,4,4,0,0,0,1.14,3.16A4.34,4.34,0,0,0,175.77,42.21Z"/><path class="b" d="M214.4,19.45V22.1l-4.62.63a7.05,7.05,0,0,1,1.1,2.1,8.76,8.76,0,0,1,.45,2.89,9.55,9.55,0,0,1-.55,3.29,7,7,0,0,1-1.66,2.61,7.76,7.76,0,0,1-2.75,1.72,10.76,10.76,0,0,1-3.82.62h-1a4.66,4.66,0,0,1-.84-.08,8.11,8.11,0,0,0-.79.53,4.37,4.37,0,0,0-.7.67,3.3,3.3,0,0,0-.52.84,2.61,2.61,0,0,0-.2,1,1.69,1.69,0,0,0,.28,1,1.83,1.83,0,0,0,.76.6,3.85,3.85,0,0,0,1.14.28,13,13,0,0,0,1.38.07h4.13a10.74,10.74,0,0,1,3.68.55A6.72,6.72,0,0,1,212.27,43a5.49,5.49,0,0,1,1.37,2.21,8.58,8.58,0,0,1,.42,2.71,8.69,8.69,0,0,1-.76,3.7A7.09,7.09,0,0,1,211,54.36a11.57,11.57,0,0,1-4,1.75,23.21,23.21,0,0,1-5.66.61,17.37,17.37,0,0,1-4.38-.49,8.85,8.85,0,0,1-3.12-1.43A6,6,0,0,1,192,52.53a7,7,0,0,1-.62-3,6.23,6.23,0,0,1,.46-2.47A5.8,5.8,0,0,1,193,45.23,6.53,6.53,0,0,1,194.84,44a10.22,10.22,0,0,1,2.12-.75,3.78,3.78,0,0,1-1.62-1.41,3.91,3.91,0,0,1-.63-2.2,4.12,4.12,0,0,1,.75-2.47,8,8,0,0,1,2.37-2A6.59,6.59,0,0,1,196,33.95a7.28,7.28,0,0,1-1.41-1.69,8.36,8.36,0,0,1-.89-2.07,8.53,8.53,0,0,1-.32-2.32,11,11,0,0,1,.59-3.73,7.4,7.4,0,0,1,1.73-2.79,7.56,7.56,0,0,1,2.86-1.76,11.86,11.86,0,0,1,4-.61,13,13,0,0,1,1.79.13,8.88,8.88,0,0,1,1.56.34Zm-19,30a4.26,4.26,0,0,0,.3,1.62,3.1,3.1,0,0,0,1,1.29,5.24,5.24,0,0,0,1.83.86,10.71,10.71,0,0,0,2.82.32q4.36,0,6.53-1.35A4.31,4.31,0,0,0,210,48.26a4.65,4.65,0,0,0-.28-1.76,2.2,2.2,0,0,0-.93-1.07,4.45,4.45,0,0,0-1.7-.53,20,20,0,0,0-2.58-.14h-4.12a8.3,8.3,0,0,0-1.71.19,4.4,4.4,0,0,0-1.63.7,4,4,0,0,0-1.22,1.42A5,5,0,0,0,195.39,49.41Zm2.16-21.68a5.58,5.58,0,0,0,1.27,4A4.75,4.75,0,0,0,202.4,33a4.61,4.61,0,0,0,3.55-1.3,5.87,5.87,0,0,0,1.21-4.09,6.18,6.18,0,0,0-1.23-4.24,4.57,4.57,0,0,0-3.57-1.36,4.5,4.5,0,0,0-3.56,1.41A6.29,6.29,0,0,0,197.54,27.73Z"/><path class="b" d="M219.11,12.49a2.6,2.6,0,0,1,.71-2,2.57,2.57,0,0,1,1.77-.63,3.06,3.06,0,0,1,1,.15,2.08,2.08,0,0,1,.8.48,2.32,2.32,0,0,1,.54.83,3.28,3.28,0,0,1,.2,1.21,2.6,2.6,0,0,1-.74,2,2.55,2.55,0,0,1-1.77.67,2.52,2.52,0,0,1-1.77-.66A2.64,2.64,0,0,1,219.11,12.49Zm4.59,32.7h-4.27V19.45h4.27Z"/><path class="b" d="M247.26,38.13a7.46,7.46,0,0,1-.68,3.28,6.33,6.33,0,0,1-2,2.36,8.83,8.83,0,0,1-3.08,1.42,16.15,16.15,0,0,1-4.05.47,20.29,20.29,0,0,1-4.38-.41A11.39,11.39,0,0,1,229.89,44V40.15q.73.38,1.62.74a18.2,18.2,0,0,0,1.88.64,18.67,18.67,0,0,0,2,.46,12.46,12.46,0,0,0,2.07.18,11.18,11.18,0,0,0,2.59-.26,4.94,4.94,0,0,0,1.73-.74,2.85,2.85,0,0,0,1-1.17,3.77,3.77,0,0,0,.3-1.54,3.51,3.51,0,0,0-.23-1.31A3.29,3.29,0,0,0,242,36a8.49,8.49,0,0,0-1.7-1.16q-1.08-.59-2.77-1.31t-3-1.43a10.49,10.49,0,0,1-2.29-1.57,6,6,0,0,1-1.44-2,6.64,6.64,0,0,1-.5-2.71,6.39,6.39,0,0,1,.64-2.92,6,6,0,0,1,1.82-2.14,8.36,8.36,0,0,1,2.81-1.31,14,14,0,0,1,3.66-.45,16.47,16.47,0,0,1,4.16.49,20.42,20.42,0,0,1,3.57,1.29l-1.48,3.45A29,29,0,0,0,242.32,23a10.86,10.86,0,0,0-3.27-.5,6.35,6.35,0,0,0-3.54.79,2.55,2.55,0,0,0-1.15,2.24,3.51,3.51,0,0,0,.27,1.43,3.18,3.18,0,0,0,.93,1.15,9.47,9.47,0,0,0,1.76,1.09q1.1.55,2.74,1.23t3,1.41a10.45,10.45,0,0,1,2.26,1.58,6.06,6.06,0,0,1,1.43,2A6.7,6.7,0,0,1,247.26,38.13Z"/><path class="b" d="M269.59,45.19V28.62A7.17,7.17,0,0,0,268.36,24a4.66,4.66,0,0,0-3.86-1.52,7.43,7.43,0,0,0-3.19.61,5,5,0,0,0-2.07,1.8,8.14,8.14,0,0,0-1.12,2.93,20.88,20.88,0,0,0-.34,4V45.19h-4.27V8.72h4.27V19.55l-.19,3.38h.23a7.34,7.34,0,0,1,1.39-1.75A8.07,8.07,0,0,1,261,19.94a8.34,8.34,0,0,1,2-.73,10.34,10.34,0,0,1,2.2-.23q4.29,0,6.46,2.24t2.17,7.16v16.8Z"/><path class="b" d="M281.45,12.49a2.6,2.6,0,0,1,.71-2,2.57,2.57,0,0,1,1.77-.63,3.06,3.06,0,0,1,1,.15,2.08,2.08,0,0,1,.8.48,2.32,2.32,0,0,1,.54.83,3.28,3.28,0,0,1,.2,1.21,2.6,2.6,0,0,1-.74,2,2.55,2.55,0,0,1-1.77.67,2.52,2.52,0,0,1-1.77-.66A2.64,2.64,0,0,1,281.45,12.49ZM286,45.19h-4.27V19.45H286Z"/><path class="b" d="M325,45.19V28.62A7.43,7.43,0,0,0,323.85,24a4.29,4.29,0,0,0-3.63-1.52,6.91,6.91,0,0,0-2.91.55,4.87,4.87,0,0,0-2,1.62,7.19,7.19,0,0,0-1.11,2.65,16.91,16.91,0,0,0-.35,3.64v14.2H309.6V28.62A7.49,7.49,0,0,0,308.44,24a4.26,4.26,0,0,0-3.62-1.52,6.72,6.72,0,0,0-3,.61,4.78,4.78,0,0,0-2,1.8,8.41,8.41,0,0,0-1.05,2.93,22.38,22.38,0,0,0-.32,4V45.19H294.2V19.45h3.47l.61,3.47h.23a7.33,7.33,0,0,1,1.34-1.75,7.66,7.66,0,0,1,1.7-1.23,7.83,7.83,0,0,1,2-.73,10.65,10.65,0,0,1,6.8.8,6.2,6.2,0,0,1,2.75,3.23h.19a7.59,7.59,0,0,1,1.46-1.9A8.41,8.41,0,0,1,316.59,20a9,9,0,0,1,2.14-.79A10.25,10.25,0,0,1,321,19q4.1,0,6.18,2.24t2.07,7.16v16.8Z"/><path class="b" d="M351.72,45.19l-.87-3.56h-.19a15,15,0,0,1-1.55,1.82,7.4,7.4,0,0,1-1.69,1.25,7.5,7.5,0,0,1-2,.73,12.86,12.86,0,0,1-2.6.23,9.29,9.29,0,0,1-3-.46,6.26,6.26,0,0,1-2.36-1.41,6.52,6.52,0,0,1-1.56-2.39,9.37,9.37,0,0,1-.56-3.41A7,7,0,0,1,338,32.09q2.71-2.06,8.24-2.25l4.31-.16V28.05a8.67,8.67,0,0,0-.34-2.62,4.16,4.16,0,0,0-1-1.7,3.69,3.69,0,0,0-1.59-.93,7.64,7.64,0,0,0-2.17-.28,11.31,11.31,0,0,0-3.62.56,23,23,0,0,0-3.22,1.36l-1.5-3.21A21.27,21.27,0,0,1,341,19.64a15.14,15.14,0,0,1,4.48-.66,15.71,15.71,0,0,1,4.14.48A6.88,6.88,0,0,1,352.52,21a6.38,6.38,0,0,1,1.7,2.66,12,12,0,0,1,.56,3.91V45.19Zm-7.83-3a7.66,7.66,0,0,0,2.65-.45,5.65,5.65,0,0,0,2.11-1.35A6.25,6.25,0,0,0,350,38.14a9.34,9.34,0,0,0,.5-3.22V32.6l-3.35.16a17.22,17.22,0,0,0-3.54.47,6.27,6.27,0,0,0-2.29,1,3.8,3.8,0,0,0-1.23,1.62,5.8,5.8,0,0,0-.37,2.14,4,4,0,0,0,1.14,3.16A4.34,4.34,0,0,0,343.89,42.21Z"/></svg>